<?xml version="1.0" encoding="iso-8859-1"?>
<!-- Generator: Adobe Illustrator 19.0.0, SVG Export Plug-In . SVG Version: 6.00 Build 0)  -->
<svg version="1.1" id="Capa_1" xmlns="http://www.w3.org/2000/svg" xmlns:xlink="http://www.w3.org/1999/xlink" x="0px" y="0px"
	 viewBox="0 0 240.945 283.465" style="enable-background:new 0 0 240.945 283.465;" xml:space="preserve">
<g id="XMLID_4_">
	<g id="XMLID_3_">
		<path id="XMLID_13_" style="fill:#E8C093;" d="M204.047,173.02L128.82,99.901c9.14,42.859,11.88,114.678,12.708,153.958h62.048
			c-5.94,16.761-40.885,29.605-83.109,29.605c-42.204,0-77.159-12.844-83.099-29.605h63.694l11.031-153.917L36.898,173.02
			c0.675-46.387,37.787-79.694,67.774-84.695H0c35.814-24.4,66.925-32.868,95.889-22.457L33.432,0
			c52.428,1.258,86.729,45.967,87.035,74.376c0.01,0.133,0.01,0.256,0.01,0.389c0-0.133,0-0.256,0.01-0.389
			C120.794,45.967,155.085,1.258,207.513,0l-62.457,65.868c28.964-10.41,60.075-1.943,95.889,22.457H136.273
			C166.26,93.326,203.372,126.633,204.047,173.02z"/>
	</g>
</g>
</svg>
