<?xml version="1.0" encoding="iso-8859-1"?>
<!-- Generator: Adobe Illustrator 19.0.0, SVG Export Plug-In . SVG Version: 6.00 Build 0)  -->
<svg version="1.1" id="Capa_1" xmlns="http://www.w3.org/2000/svg" xmlns:xlink="http://www.w3.org/1999/xlink" x="0px" y="0px"
	 viewBox="0 0 1280 800" style="enable-background:new 0 0 1280 800;" xml:space="preserve">
<rect id="XMLID_3_" style="fill:#FCF9F7;" width="1280" height="800"/>
<path id="XMLID_1_" style="fill:#F4E5D7;fill-opacity:0.5;" d="M165.552,417.435c-20.435-28.883-18.849-26.476-20.895-29.905
	c1.214,18.902,3.068,37.662,5.557,56.245c0.742,2.677,1.776,5.215,3.08,7.566c23.02,33.633,53.173,68.077,85.755,91.561
	c24.42,14.858,32.73,19.705,38.069,26.516c5.786,7.131,4.418,16.118-6.052,13.341c-7.155-2.059-8.957-4.195-41.084-26.893
	c-29.14-22.811-54.482-50.531-75.234-82.296c10.065,57.947,26.707,114.6,55.937,162.107c3.407,5.479,6.517,10.849,10.057,15.602
	c0.838,1.062,1.208,2.495,1.031,3.989c-0.177,1.493-0.888,2.927-1.978,3.991c-1.102,1.049-2.489,1.638-3.862,1.639
	c-1.373,0.001-2.621-0.586-3.474-1.634c-36.945-40.551-59.265-110.146-71.071-167.108c-2.779,65.257,5.469,196.524,9.917,214.202
	c1.906,7.521-5.708,12.111-10.44,6.376c-16.898-35.636-16.672-203.097-4.797-249.309c-3.239-19.595-5.753-39.777-7.543-60.309
	c-2.281,7.254-7.005,17.172-18.694,50.205c-15.857,45.13-23.778,79.514-16.942,122.17c1.163,7.092,2.406,14.484,4.526,21.736
	c0.26,0.775,0.369,1.618,0.32,2.481c-0.049,0.863-0.257,1.73-0.608,2.549c-0.352,0.82-0.843,1.578-1.444,2.229
	c-0.601,0.652-1.3,1.184-2.059,1.569c-0.758,0.384-1.561,0.611-2.361,0.67c-0.801,0.058-1.583-0.055-2.304-0.331
	c-0.721-0.276-1.365-0.712-1.896-1.281c-0.531-0.57-0.938-1.262-1.199-2.037c-9.087-22.411-12.98-45.58-8.301-80.694
	c5.992-43.152,23.081-81.437,40.185-118.941c3.945-8.461,5.734-18.378,8.857-27.647c-0.922-17.462-1.295-32.979-1.305-48.788
	c-19.007,30.139-50.012,69.566-68.747,106.158c-8.06,15.699-17.139,39.467-16.972,55.799c0.066,0.901-0.036,1.83-0.302,2.733
	c-0.267,0.904-0.692,1.765-1.251,2.532c-0.558,0.767-1.24,1.426-2.003,1.938c-0.764,0.511-1.597,0.866-2.447,1.042
	c-0.851,0.189-1.706,0.199-2.515,0.025c-0.81-0.172-1.559-0.523-2.204-1.031c-0.645-0.509-1.172-1.164-1.55-1.929
	c-0.38-0.765-0.602-1.624-0.658-2.527c-2.632-22.432,5.398-43.526,16.943-64.952c20.601-38.77,55.027-79.608,81.779-115.065
	c0.56-28.112,2.401-58.23,6.481-90.194C83.239,279.845,24.436,365.228,22.381,376.594c-0.369,1.633-1.268,3.142-2.526,4.236
	c-1.259,1.095-2.79,1.701-4.302,1.703c-1.512,0.001-2.9-0.601-3.899-1.694c-1-1.092-1.542-2.598-1.524-4.231
	c2.254-31.593,97.828-146.451,124.036-172.113c3.204-21.822,7.561-43.587,13.05-65.187C24.345,269.045,22.436,272.718,13.1,275.55
	c-8.255,1.797-10.714-7.826-6.126-13.417c47.021-57.188,105.59-105.198,145.04-140.347c31.166-107.315,82.665-152.935,54.357-99.148
	c-14.854,28.729-26.709,58.828-35.32,89.667c3.526,7.887,9.562,20.379,10.638,22.946c11.077,26.709,54.418,109.907,81.867,129.679
	c2.611,2.241,6.005,3.261,8.33,5.939c4.801,5.49-1.504,13.314-8.329,13.16c-34.206-1.151-82.698-108.021-93.479-142.214
	l-4.166-10.601c-4.299,16.737-8.14,34.418-11.826,56.38c13.955,27.577,35.078,80.77,67.666,123.588
	c10.688,14.092,36.558,31.847,39.636,39.336c5.697,13.955-2.036,19.974-13.219,10.658c-15.624-15.177-29.414-26.578-38.533-39.201
	c-24.944-34.419-41.645-71.261-58.692-114.699c-4.038,28.75-6.595,57.514-7.659,86.157
	c24.592,42.852,91.858,111.322,136.449,126.066c0.547,0.122,1.051,0.364,1.485,0.712c0.434,0.347,0.789,0.793,1.044,1.311
	c0.255,0.518,0.406,1.1,0.444,1.711c0.038,0.611-0.039,1.24-0.224,1.851s-0.477,1.191-0.858,1.709
	c-0.381,0.517-0.843,0.96-1.361,1.305c-0.518,0.345-1.081,0.585-1.657,0.705c-0.576,0.12-1.154,0.119-1.701-0.004
	c-8.095-1.358-17.246-4.192-26.658-9.175c-38.089-19.938-84.314-70.033-107.555-107.467c-0.241,14.206-0.165,25.779,0.059,37.405
	c7.011,28.851,10.022,28.994,32.588,58.081c12.921,15.768,78.199,76.262,109.165,92.023c2.887,1.336,6.651,2.531,7.527,6.147
	c0.409,2.204-1.232,4.582-3.853,5.629c-2.767,1.07-5.704,0.917-8.494,0.818c-25.525-3.643-98.485-74.485-114.431-95.01
	L165.552,417.435z"/>
<path id="XMLID_2_" style="fill:#F4E5D7;fill-opacity:0.5;" d="M1119.137,382.565c20.435,28.883,18.849,26.476,20.895,29.905
	c-1.214-18.902-3.068-37.662-5.557-56.245c-0.742-2.677-1.776-5.215-3.08-7.566c-23.02-33.633-53.173-68.077-85.755-91.561
	c-24.42-14.858-32.73-19.705-38.069-26.517c-5.786-7.131-4.418-16.118,6.052-13.341c7.155,2.059,8.957,4.195,41.084,26.893
	c29.14,22.811,54.482,50.531,75.234,82.296c-10.065-57.947-26.707-114.6-55.937-162.107c-3.406-5.479-6.517-10.849-10.057-15.602
	c-0.838-1.062-1.208-2.495-1.031-3.989c0.177-1.493,0.888-2.927,1.978-3.991c1.102-1.049,2.489-1.638,3.862-1.639
	c1.373-0.001,2.621,0.586,3.474,1.634c36.945,40.551,59.265,110.146,71.071,167.108c2.779-65.257-5.469-196.524-9.917-214.202
	c-1.906-7.521,5.708-12.111,10.44-6.376c16.898,35.636,16.672,203.097,4.797,249.309c3.239,19.595,5.753,39.777,7.543,60.309
	c2.281-7.254,7.005-17.172,18.694-50.205c15.857-45.13,23.778-79.514,16.942-122.17c-1.163-7.092-2.406-14.484-4.526-21.736
	c-0.26-0.775-0.369-1.618-0.32-2.481c0.049-0.863,0.257-1.73,0.608-2.549c0.352-0.82,0.843-1.578,1.444-2.229
	c0.601-0.652,1.301-1.184,2.059-1.569c0.758-0.384,1.561-0.611,2.361-0.67c0.801-0.058,1.583,0.055,2.304,0.331
	c0.721,0.276,1.365,0.712,1.896,1.281c0.531,0.57,0.938,1.262,1.199,2.037c9.087,22.411,12.98,45.58,8.301,80.694
	c-5.992,43.152-23.081,81.437-40.185,118.941c-3.945,8.461-5.734,18.378-8.857,27.647c0.922,17.462,1.295,32.979,1.305,48.788
	c19.007-30.139,50.012-69.566,68.747-106.158c8.06-15.699,17.139-39.467,16.972-55.799c-0.066-0.901,0.036-1.83,0.302-2.733
	c0.267-0.904,0.692-1.765,1.251-2.532c0.558-0.767,1.24-1.426,2.003-1.938c0.764-0.511,1.597-0.866,2.447-1.042
	c0.851-0.189,1.706-0.199,2.515-0.025c0.81,0.172,1.559,0.523,2.204,1.031c0.645,0.509,1.172,1.164,1.55,1.929
	c0.38,0.765,0.602,1.624,0.658,2.527c2.632,22.432-5.398,43.526-16.943,64.952c-20.601,38.77-55.027,79.608-81.78,115.065
	c-0.56,28.112-2.401,58.23-6.481,90.194c48.614-58.305,107.417-143.688,109.472-155.055c0.369-1.633,1.268-3.142,2.526-4.236
	c1.259-1.095,2.79-1.701,4.302-1.703c1.512-0.001,2.9,0.601,3.899,1.694c1,1.092,1.542,2.598,1.524,4.231
	c-2.254,31.593-97.828,146.451-124.036,172.113c-3.204,21.822-7.561,43.587-13.05,65.187
	c122.871-129.737,124.78-133.41,134.116-136.242c8.255-1.797,10.714,7.826,6.126,13.417
	c-47.021,57.188-105.59,105.198-145.04,140.347c-31.166,107.315-82.665,152.935-54.357,99.148
	c14.854-28.729,26.709-58.828,35.32-89.667c-3.526-7.887-9.562-20.379-10.638-22.946c-11.077-26.709-54.418-109.907-81.867-129.679
	c-2.611-2.241-6.005-3.261-8.33-5.939c-4.8-5.49,1.504-13.314,8.33-13.16c34.206,1.151,82.698,108.021,93.479,142.214l4.166,10.601
	c4.299-16.737,8.14-34.418,11.826-56.38c-13.955-27.577-35.078-80.77-67.666-123.588c-10.688-14.092-36.558-31.847-39.636-39.336
	c-5.697-13.955,2.036-19.974,13.219-10.658c15.624,15.177,29.414,26.578,38.533,39.201c24.944,34.419,41.645,71.261,58.692,114.699
	c4.038-28.75,6.595-57.514,7.659-86.157c-24.592-42.852-91.858-111.322-136.449-126.066c-0.547-0.122-1.051-0.364-1.485-0.712
	c-0.434-0.347-0.789-0.793-1.044-1.311c-0.255-0.518-0.406-1.1-0.443-1.711c-0.038-0.611,0.039-1.24,0.224-1.851
	s0.477-1.191,0.858-1.709c0.381-0.517,0.843-0.96,1.361-1.305c0.518-0.345,1.081-0.585,1.657-0.705
	c0.576-0.12,1.154-0.119,1.701,0.004c8.095,1.358,17.246,4.192,26.658,9.175c38.089,19.938,84.314,70.033,107.555,107.467
	c0.241-14.206,0.165-25.779-0.059-37.405c-7.011-28.851-10.022-28.994-32.589-58.081c-12.921-15.768-78.198-76.262-109.165-92.023
	c-2.887-1.336-6.651-2.531-7.527-6.147c-0.409-2.204,1.232-4.582,3.853-5.629c2.767-1.07,5.704-0.917,8.494-0.818
	c25.525,3.643,98.485,74.485,114.431,95.01L1119.137,382.565z"/>
</svg>
