<?xml version="1.0" encoding="iso-8859-1"?>
<!-- Generator: Adobe Illustrator 19.0.0, SVG Export Plug-In . SVG Version: 6.00 Build 0)  -->
<svg version="1.1" id="Capa_1" xmlns="http://www.w3.org/2000/svg" xmlns:xlink="http://www.w3.org/1999/xlink" x="0px" y="0px"
	 viewBox="0 0 1280 800" style="enable-background:new 0 0 1280 800;" xml:space="preserve">
<rect id="XMLID_3_" style="fill:#FFFFFF;" width="1280" height="800"/>
<g id="XMLID_4_">
	<path id="XMLID_2_" style="fill:#F4E5D7;fill-opacity:0.5;" d="M769.372,402.534c12.128,28.925,11.218,26.537,12.329,29.897
		c2.586-16.59,4.59-33.181,6.011-49.741c-0.127-2.459-0.533-4.854-1.21-7.14c-13.451-33.533-32.918-69.138-56.595-95.728
		c-18.274-17.555-24.532-23.348-27.842-30.269c-3.635-7.284-0.723-14.798,7.803-10.38c5.796,3.158,6.944,5.353,30.379,31.174
		c20.828,25.345,37.426,54.207,49.273,85.687c2.437-52.08-1.066-104.307-17.222-151.039c-1.894-5.397-3.553-10.642-5.701-15.436
		c-0.521-1.08-0.566-2.392-0.125-3.65c0.441-1.258,1.331-2.362,2.479-3.073c1.155-0.696,2.469-0.939,3.657-0.676
		c1.188,0.263,2.155,1.011,2.692,2.082c24.17,42.198,30.097,106.715,29.356,158.278c14.958-55.935,33.071-171.114,32.623-187.267
		c-0.203-6.875,7.269-9.382,10.261-3.509c7.768,34.088-24.641,178.957-43.806,216.662c-0.967,17.58-2.673,35.527-5.074,53.639
		c3.369-5.839,9.365-13.512,25.834-39.849c22.403-36.003,35.871-64.234,38.161-102.46c0.358-6.361,0.704-12.997,0.265-19.68
		c-0.076-0.721-0.008-1.471,0.201-2.209c0.209-0.737,0.555-1.448,1.017-2.089c0.463-0.642,1.033-1.203,1.679-1.651
		c0.645-0.448,1.353-0.775,2.084-0.962c0.73-0.186,1.468-0.229,2.172-0.125c0.704,0.104,1.36,0.352,1.93,0.729
		c0.571,0.378,1.044,0.879,1.394,1.473c0.35,0.595,0.569,1.273,0.646,1.994c3.552,21.142,2.465,41.939-8.339,71.425
		c-13.486,36.189-35.638,66.032-57.654,95.195c-5.041,6.563-8.497,14.8-12.982,22.22c-2.561,15.289-5.224,28.788-8.256,42.47
		c22.245-22.425,56.66-50.579,79.911-78.64c9.995-12.035,22.423-30.856,25.42-45.021c0.116-0.792,0.383-1.577,0.788-2.307
		c0.405-0.731,0.938-1.394,1.569-1.95c0.631-0.556,1.347-0.996,2.106-1.292c0.76-0.295,1.548-0.442,2.318-0.431
		c0.772,0,1.514,0.156,2.181,0.462c0.668,0.305,1.249,0.753,1.709,1.316c0.46,0.564,0.79,1.232,0.971,1.967
		c0.182,0.735,0.209,1.521,0.083,2.313c-2.037,19.917-13.044,36.627-27.156,52.947c-25.285,29.587-62.931,58.304-92.902,83.84
		c-5.893,24.219-13.279,49.927-22.958,76.803c53.284-41.103,120.594-103.677,124.558-113.118c0.633-1.343,1.701-2.475,3.001-3.18
		c1.3-0.706,2.741-0.935,4.05-0.646c1.309,0.29,2.394,1.078,3.048,2.216c0.655,1.137,0.835,2.545,0.505,3.955
		c-8.028,26.906-112.827,107.913-140.442,125.078c-6.97,18.267-14.927,36.263-23.833,53.899
		c131.282-88.632,133.642-91.443,142.265-92.099c7.489,0.033,7.765,8.833,2.721,12.789
		c-51.691,40.443-111.608,70.721-152.507,93.549c-47.613,86.87-100.953,116.44-66.11,75.341
		c18.38-22.003,34.429-45.769,47.813-70.799c-1.534-7.503-4.354-19.474-4.792-21.902c-4.448-25.243-25.949-105.576-45.899-127.966
		c-1.828-2.442-4.569-3.977-6.066-6.742c-3.098-5.674,3.863-11.232,9.739-9.785c29.379,7.576,50.784,109.384,53.536,141.046
		l1.566,9.975c6.94-13.656,13.665-28.218,21.079-46.514c-6.771-26.548-14.818-76.642-34.781-119.963
		c-6.538-14.25-25.509-34.591-26.732-41.664c-2.245-13.172,5.604-16.893,13.489-6.68c10.6,16.139,20.341,28.657,25.804,41.335
		c14.964,34.583,22.329,69.676,28.725,110.545c9.024-24.102,16.77-48.501,23.201-73.083
		c-13.038-41.812-58.075-114.003-93.826-135.339c-0.449-0.211-0.84-0.517-1.148-0.901c-0.309-0.384-0.53-0.838-0.651-1.335
		c-0.121-0.497-0.14-1.03-0.055-1.566c0.085-0.536,0.272-1.066,0.55-1.558c0.278-0.493,0.642-0.939,1.071-1.314
		c0.429-0.374,0.915-0.669,1.429-0.868c0.515-0.199,1.048-0.298,1.57-0.291c0.522,0.007,1.022,0.119,1.471,0.331
		c6.744,2.733,14.118,6.945,21.304,13.067c29.125,24.58,59.49,76.822,72.4,113.686c2.941-12.247,5.102-22.276,7.144-32.379
		c-0.517-26.315-3.095-27.017-17.028-56.529c-8.148-16.131-52.999-81.035-76.764-100.631c-2.241-1.711-5.268-3.469-5.331-6.768
		c0.07-1.986,1.948-3.728,4.417-4.13c2.6-0.394,5.112,0.304,7.507,0.926c21.387,8.062,70.896,83.4,80.746,104.229L769.372,402.534z"
		/>
	<path id="XMLID_1_" style="fill:#FCF5F0;fill-opacity:0.5;" d="M510.805,396.9c-11.994-28.981-11.095-26.589-12.191-29.954
		c-2.662,16.578-4.743,33.159-6.241,49.713c0.115,2.46,0.511,4.857,1.177,7.145c13.295,33.595,32.597,69.29,56.151,95.989
		c18.193,17.639,24.424,23.461,27.702,30.398c3.601,7.301,0.654,14.801-7.851,10.344c-5.781-3.185-6.919-5.386-30.234-31.315
		c-20.711-25.441-37.174-54.38-48.876-85.914c-2.679,52.069,0.583,104.31,16.522,151.117c1.869,5.405,3.504,10.658,5.63,15.462
		c0.516,1.083,0.555,2.394,0.108,3.65c-0.446,1.256-1.342,2.356-2.493,3.062c-1.159,0.691-2.473,0.927-3.66,0.659
		c-1.187-0.269-2.15-1.021-2.682-2.094c-23.974-42.309-29.602-106.853-28.622-158.412c-15.217,55.865-33.863,170.959-33.49,187.114
		c0.171,6.876-7.313,9.349-10.277,3.461c-7.609-34.123,25.469-178.841,44.809-216.457c1.048-17.575,2.837-35.515,5.323-53.615
		c-3.396,5.823-9.427,13.469-26.018,39.729c-22.569,35.899-36.169,64.067-38.635,102.282c-0.388,6.359-0.764,12.993-0.356,19.678
		c0.073,0.721,0.001,1.471-0.211,2.208c-0.212,0.736-0.562,1.445-1.026,2.084c-0.466,0.64-1.038,1.198-1.686,1.643
		c-0.647,0.445-1.357,0.768-2.088,0.952c-0.73,0.183-1.469,0.222-2.172,0.115c-0.704-0.107-1.358-0.358-1.927-0.738
		c-0.569-0.38-1.04-0.883-1.387-1.479c-0.347-0.597-0.563-1.275-0.637-1.997c-3.454-21.158-2.27-41.95,8.67-71.386
		c13.653-36.126,35.944-65.866,58.094-94.927c5.072-6.54,8.566-14.761,13.085-22.16c2.632-15.276,5.357-28.763,8.452-42.431
		c-22.349,22.321-56.893,50.315-80.275,78.268c-10.051,11.988-22.566,30.752-25.628,44.902c-0.12,0.792-0.39,1.575-0.798,2.303
		c-0.408,0.729-0.945,1.39-1.578,1.943c-0.633,0.553-1.352,0.989-2.112,1.282c-0.761,0.291-1.55,0.435-2.32,0.42
		c-0.772-0.003-1.513-0.163-2.179-0.472c-0.667-0.308-1.245-0.758-1.703-1.324c-0.458-0.566-0.784-1.236-0.962-1.972
		c-0.178-0.736-0.202-1.522-0.072-2.313c2.13-19.908,13.213-36.566,27.4-52.821c25.422-29.47,63.2-58.012,93.289-83.408
		c6.005-24.191,13.51-49.865,23.314-76.696c-53.474,40.855-121.073,103.118-125.081,112.54c-0.639,1.34-1.713,2.467-3.015,3.166
		c-1.304,0.7-2.746,0.923-4.053,0.627c-1.307-0.296-2.389-1.089-3.038-2.23c-0.65-1.14-0.823-2.549-0.486-3.957
		c8.152-26.868,113.325-107.389,141.02-124.426c7.055-18.235,15.095-36.194,24.082-53.788
		c-131.692,88.023-134.064,90.823-142.69,91.438c-7.489-0.067-7.724-8.869-2.661-12.801
		c51.878-40.203,111.934-70.204,152.939-92.842c48.015-86.649,101.491-115.971,66.459-75.034
		c-18.482,21.918-34.64,45.609-48.14,70.577c1.5,7.51,4.264,19.494,4.691,21.924c4.331,25.264,25.46,105.695,45.305,128.177
		c1.817,2.45,4.55,3.998,6.035,6.77c3.072,5.688-3.915,11.214-9.785,9.74c-29.344-7.712-50.276-109.618-52.882-141.293l-1.519-9.982
		c-7.003,13.624-13.796,28.154-21.294,46.415c6.648,26.579,14.463,76.71,34.225,120.123c6.472,14.281,25.349,34.708,26.539,41.787
		c2.184,13.182-5.683,16.867-13.52,6.618c-10.526-16.188-20.208-28.751-25.612-41.454c-14.804-34.652-22.006-69.779-28.213-110.677
		c-9.136,24.06-16.995,48.422-23.539,72.975c12.844,41.872,57.546,114.27,93.198,135.772c0.448,0.213,0.837,0.521,1.144,0.907
		c0.307,0.385,0.526,0.84,0.645,1.338c0.119,0.498,0.135,1.031,0.047,1.566c-0.088,0.536-0.277,1.064-0.557,1.556
		c-0.28,0.491-0.647,0.936-1.077,1.309c-0.431,0.372-0.918,0.665-1.433,0.861c-0.515,0.197-1.049,0.293-1.571,0.284
		c-0.522-0.009-1.021-0.124-1.469-0.338c-6.731-2.764-14.085-7.01-21.243-13.166c-29.011-24.715-59.133-77.096-71.872-114.02
		c-2.998,12.233-5.205,22.252-7.294,32.346c0.395,26.317,2.97,27.031,16.766,56.607c8.073,16.168,52.623,81.28,76.297,100.986
		c2.233,1.721,5.252,3.493,5.3,6.792c-0.079,1.985-1.965,3.719-4.436,4.11c-2.602,0.382-5.111-0.328-7.503-0.961
		c-21.35-8.161-70.509-83.728-80.262-104.602L510.805,396.9z"/>
</g>
</svg>
