<?xml version="1.0" encoding="iso-8859-1"?>
<!-- Generator: Adobe Illustrator 19.0.0, SVG Export Plug-In . SVG Version: 6.00 Build 0)  -->
<svg version="1.1" id="Capa_1" xmlns="http://www.w3.org/2000/svg" xmlns:xlink="http://www.w3.org/1999/xlink" x="0px" y="0px"
	 viewBox="0 0 1280 800" style="enable-background:new 0 0 1280 800;" xml:space="preserve">
<rect id="XMLID_3_" style="fill:#FCF9F7;" width="1280" height="800"/>
<path id="XMLID_2_" style="fill:#F4E5D7;fill-opacity:0.5;" d="M863.508,154.863c29.251,19.905,26.816,18.362,30.281,20.346
	c-18.921-0.869-37.712-2.38-56.338-4.529c-2.69-0.693-5.246-1.68-7.621-2.941c-34.048-22.402-69.036-51.921-93.111-84.069
	c-15.301-24.145-20.299-32.364-27.207-37.579c-7.235-5.655-16.196-4.123-13.228,6.294c2.189,7.116,4.358,8.879,27.638,40.586
	c23.339,28.719,51.517,53.551,83.656,73.719c-58.121-9.005-115.069-24.61-163.101-52.968c-5.54-3.306-10.966-6.318-15.783-9.77
	c-1.077-0.818-2.517-1.162-4.007-0.958c-1.49,0.204-2.91,0.941-3.954,2.05c-1.029,1.121-1.593,2.519-1.569,3.891
	c0.024,1.373,0.634,2.61,1.697,3.443c41.219,36.198,111.209,57.244,168.378,68.008c-65.195,3.97-196.591-1.88-214.348-6.005
	c-7.554-1.768-12.005,5.928-6.184,10.555c35.938,16.244,203.367,12.962,249.355,0.245c19.651,2.88,39.875,5.026,60.437,6.44
	c-7.211,2.413-17.041,7.317-49.855,19.607c-44.833,16.678-79.067,25.225-121.84,19.169c-7.112-1.033-14.526-2.141-21.815-4.128
	c-0.78-0.246-1.625-0.34-2.487-0.274c-0.862,0.065-1.725,0.288-2.538,0.654c-0.813,0.367-1.562,0.871-2.202,1.485
	c-0.641,0.612-1.16,1.322-1.531,2.087c-0.37,0.765-0.583,1.571-0.626,2.372c-0.044,0.802,0.083,1.582,0.373,2.297
	c0.289,0.716,0.737,1.352,1.315,1.872c0.579,0.521,1.279,0.915,2.059,1.162c22.573,8.676,45.809,12.146,80.832,6.826
	c43.036-6.779,81.002-24.563,118.188-42.35c8.388-4.099,18.27-6.069,27.48-9.36c17.476,0.603,32.997,0.692,48.804,0.414
	c-29.787,19.554-68.641,51.274-104.885,70.674c-15.549,8.346-39.148,17.857-55.48,17.987c-0.902-0.05-1.829,0.069-2.727,0.352
	c-0.899,0.283-1.752,0.724-2.508,1.297c-0.757,0.572-1.403,1.266-1.901,2.038c-0.497,0.773-0.837,1.612-0.997,2.466
	c-0.174,0.854-0.168,1.709,0.021,2.515c0.187,0.807,0.552,1.55,1.071,2.185c0.52,0.635,1.185,1.15,1.956,1.515
	c0.772,0.366,1.634,0.573,2.538,0.611c22.476,2.222,43.42-6.191,64.632-18.125c38.388-21.305,78.591-56.471,113.552-83.866
	c28.097-1.073,58.176-3.464,90.061-8.126c-57.408,49.671-141.703,110.023-153.031,112.285c-1.626,0.398-3.118,1.325-4.19,2.603
	c-1.072,1.279-1.65,2.82-1.624,4.332c0.027,1.512,0.654,2.889,1.765,3.868c1.11,0.98,2.626,1.495,4.259,1.446
	c31.547-2.83,144.641-100.485,169.82-127.157c21.76-3.602,43.441-8.355,64.938-14.238
	c-127.472,125.219-131.11,127.195-133.771,136.581c-1.646,8.286,8.021,10.569,13.526,5.88
	c56.32-48.058,103.253-107.493,137.676-147.578c106.729-33.12,151.4-85.443,98.139-56.158
	c-28.453,15.376-58.33,27.778-89.007,36.951c-7.95-3.382-20.55-9.188-23.136-10.218c-26.906-10.588-110.882-52.403-131.152-79.486
	c-2.289-2.569-3.37-5.944-6.09-8.22c-5.576-4.699-13.285,1.747-13.005,8.568c1.775,34.18,109.513,80.713,143.897,90.867
	l10.675,3.972c-16.656,4.604-34.264,8.767-56.155,12.853c-27.827-13.449-81.397-33.598-124.803-65.398
	c-14.285-10.429-32.509-35.97-40.053-38.911c-14.057-5.441-19.933,2.401-10.415,13.412c15.46,15.344,27.111,28.924,39.898,37.811
	c34.869,24.311,72.009,40.337,115.751,56.588c-28.672,4.562-57.384,7.644-86.003,9.23c-43.294-23.806-112.981-89.81-128.536-134.125
	c-0.132-0.544-0.383-1.045-0.739-1.472c-0.355-0.428-0.807-0.774-1.33-1.02c-0.523-0.246-1.108-0.386-1.719-0.412
	c-0.612-0.026-1.239,0.061-1.846,0.258c-0.607,0.197-1.182,0.499-1.693,0.889c-0.51,0.39-0.945,0.861-1.28,1.385
	c-0.336,0.524-0.565,1.091-0.675,1.67c-0.11,0.578-0.098,1.156,0.035,1.7c1.506,8.069,4.506,17.167,9.66,26.486
	c20.63,37.719,71.56,83.022,109.412,105.575c-14.2,0.5-25.772,0.636-37.4,0.624c-28.975-6.483-29.172-9.491-58.666-31.523
	c-16.002-12.631-77.677-76.793-94-107.467c-1.388-2.862-2.651-6.604-6.284-7.414c-2.211-0.369-4.558,1.316-5.558,3.955
	c-1.02,2.786-0.813,5.72-0.662,8.507c4.108,25.454,76.271,97.109,97.083,112.677L863.508,154.863z"/>
<path id="XMLID_1_" style="fill:#F4E5D7;fill-opacity:0.5;" d="M416.371,654.209c-29.295-19.841-26.856-18.304-30.325-20.28
	c18.923,0.828,37.717,2.298,56.347,4.407c2.692,0.687,5.25,1.669,7.628,2.925c34.096,22.329,69.148,51.771,93.293,83.867
	c15.354,24.112,20.369,32.32,27.289,37.519c7.248,5.639,16.205,4.088,13.214-6.323c-2.204-7.112-4.378-8.869-27.726-40.526
	c-23.401-28.668-51.633-53.439-83.815-73.538c58.141,8.879,115.122,24.361,163.215,52.614c5.547,3.294,10.98,6.294,15.804,9.736
	c1.079,0.816,2.519,1.157,4.009,0.949c1.489-0.208,2.908-0.947,3.95-2.059c1.027-1.123,1.587-2.522,1.56-3.895
	c-0.027-1.372-0.639-2.608-1.704-3.44c-41.297-36.109-111.333-57.003-168.525-67.643c65.186-4.111,196.594,1.454,214.36,5.54
	c7.558,1.752,11.992-5.954,6.161-10.568c-35.973-16.166-203.395-12.521-249.355,0.295c-19.657-2.838-39.886-4.94-60.451-6.309
	c7.206-2.429,17.025-7.354,49.813-19.715c44.797-16.775,79.012-25.397,121.798-19.433c7.114,1.018,14.531,2.11,21.824,4.081
	c0.78,0.244,1.625,0.336,2.487,0.269c0.862-0.067,1.725-0.292,2.536-0.66c0.813-0.369,1.56-0.875,2.199-1.49
	c0.639-0.614,1.157-1.324,1.527-2.091c0.368-0.765,0.579-1.573,0.621-2.374c0.042-0.802-0.087-1.582-0.378-2.297
	c-0.291-0.716-0.74-1.35-1.319-1.869c-0.581-0.519-1.281-0.912-2.061-1.158c-22.592-8.627-45.835-12.047-80.847-6.651
	c-43.021,6.872-80.949,24.739-118.096,42.606c-8.379,4.117-18.257,6.109-27.46,9.42c-17.478-0.565-32.999-0.621-48.804-0.308
	c29.745-19.618,68.53-51.422,104.732-70.901c15.531-8.379,39.109-17.941,55.441-18.108c0.902,0.048,1.829-0.073,2.727-0.358
	c0.899-0.285,1.75-0.728,2.505-1.302c0.755-0.574,1.4-1.269,1.897-2.042c0.495-0.775,0.833-1.614,0.992-2.468
	c0.172-0.854,0.164-1.709-0.026-2.515c-0.189-0.807-0.555-1.548-1.076-2.183c-0.522-0.634-1.187-1.148-1.96-1.511
	c-0.772-0.364-1.636-0.569-2.54-0.606c-22.481-2.173-43.407,6.285-64.592,18.266c-38.342,21.388-78.468,56.641-113.37,84.112
	c-28.095,1.134-58.169,3.59-90.043,8.322c57.3-49.795,141.464-110.33,152.787-112.616c1.626-0.402,3.115-1.332,4.184-2.612
	c1.069-1.281,1.644-2.824,1.615-4.336c-0.03-1.512-0.66-2.887-1.774-3.864c-1.112-0.978-2.629-1.489-4.262-1.437
	c-31.541,2.898-144.423,100.798-169.544,127.525c-21.752,3.649-43.423,8.449-64.907,14.379
	c127.2-125.495,130.834-127.479,133.475-136.87c1.628-8.29-8.044-10.551-13.539-5.851
	c-56.216,48.18-103.019,107.716-137.356,147.876C13.85,680.063-30.707,732.483,22.49,703.082
	c28.42-15.437,58.27-27.905,88.927-37.144c7.957,3.365,20.57,9.144,23.158,10.168c26.929,10.529,110.996,52.162,131.324,79.202
	c2.294,2.564,3.383,5.937,6.108,8.207c5.587,4.687,13.281-1.776,12.987-8.596c-1.849-34.176-109.687-80.475-144.093-90.555
	l-10.684-3.948c16.646-4.64,34.245-8.842,56.127-12.974c27.856,13.389,81.47,33.422,124.944,65.128
	c14.307,10.398,32.587,35.9,40.137,38.824c14.068,5.411,19.928-2.444,10.386-13.434c-15.493-15.31-27.173-28.865-39.98-37.724
	c-34.922-24.236-72.097-40.181-115.874-56.337c28.662-4.624,57.367-7.768,85.983-9.417
	c43.345,23.712,113.175,89.565,128.827,133.846c0.134,0.544,0.385,1.044,0.742,1.47c0.356,0.427,0.809,0.772,1.332,1.017
	c0.523,0.245,1.108,0.383,1.719,0.408c0.612,0.025,1.239-0.064,1.846-0.262c0.607-0.198,1.181-0.502,1.691-0.893
	c0.51-0.391,0.943-0.863,1.277-1.388c0.334-0.525,0.563-1.093,0.671-1.671c0.108-0.578,0.096-1.156-0.039-1.7
	c-1.524-8.066-4.543-17.157-9.717-26.465c-20.712-37.674-71.74-82.866-109.641-105.337c14.198-0.531,25.77-0.692,37.398-0.705
	c28.989,6.421,29.192,9.427,58.734,31.395c16.029,12.596,77.843,76.625,94.233,107.263c1.394,2.859,2.666,6.598,6.3,7.4
	c2.211,0.364,4.555-1.326,5.549-3.967c1.014-2.788,0.8-5.722,0.644-8.509c-4.163-25.445-76.481-96.943-97.327-112.466
	L416.371,654.209z"/>
</svg>
